<svg width="120" height="120" viewBox="0 0 120 120" fill="none" xmlns="http://www.w3.org/2000/svg">
<path d="M107.805 25.8618C115.257 32.9185 118.544 46.0847 118.972 56.1252C119.212 65.7884 117.916 74.5437 114.156 83.4232C114.028 83.7277 113.899 84.0322 113.766 84.3459C107.636 98.477 95.5973 109.463 81.5851 114.993C66.1051 120.861 49.5678 120.288 34.5508 113.245C29.5365 110.825 25.2653 107.798 21.0106 104.197C20.5521 103.822 20.5521 103.822 20.0844 103.438C18.1981 101.859 16.6379 100.053 15.0831 98.1382C14.8124 97.8129 14.5417 97.4876 14.2628 97.1525C9.11163 90.8072 5.5056 83.5103 3.22818 75.6329C3.1021 75.1972 2.97603 74.7615 2.84614 74.3126C-1.01645 59.796 1.35223 44.2284 8.36178 31.1365C8.62836 30.6357 8.62836 30.6357 8.90032 30.1249C9.07299 29.8132 9.24566 29.5016 9.42356 29.1805C9.5759 28.905 9.72824 28.6295 9.8852 28.3456C10.5216 27.4596 11.2368 26.9136 12.1194 26.2946C14.3499 29.1521 16.1843 32.2254 18.0204 35.3562C18.3389 35.8962 18.6575 36.436 18.9763 36.9758C19.9391 38.6074 20.8985 40.2411 21.8573 41.8751C22.1336 42.3455 22.4098 42.8159 22.6944 43.3005C23.7324 45.0684 24.7701 46.8366 25.8064 48.6056C27.9735 52.303 30.1604 55.9878 32.3511 59.6706C34.4275 63.1614 36.4937 66.6581 38.5449 70.1645C39.7367 72.1994 40.9374 74.2285 42.1453 76.2534C42.748 77.2637 43.3506 78.2741 43.953 79.2846C44.1038 79.5376 44.2546 79.7905 44.41 80.0511C47.1355 84.6269 49.7976 89.239 52.4277 93.8727C55.1713 99.1093 55.1713 99.1093 58.6923 103.764C60.1302 103.918 60.1302 103.918 61.656 103.332C62.6884 102.233 63.3642 100.949 64.0905 99.6259C64.3183 99.231 64.5461 98.8361 64.7808 98.4293C65.2936 97.5386 65.8021 96.6452 66.3071 95.7498C67.237 94.1012 68.1883 92.466 69.1414 90.8314C69.4881 90.2365 69.8348 89.6416 70.1815 89.0467C70.3549 88.749 70.5284 88.4513 70.7072 88.1446C71.4113 86.9346 72.1127 85.7229 72.8141 84.5113C74.9162 80.8807 77.0538 77.2744 79.2157 73.6807C80.6288 71.3243 82.0309 68.961 83.4341 66.5984C83.5901 66.3358 83.7461 66.0732 83.9069 65.8026C85.84 62.5479 87.766 59.2891 89.6791 56.022C91.6724 52.618 93.6843 49.2258 95.7053 45.8388C97.1261 43.4575 98.5428 41.0737 99.9546 38.6867C100.438 37.8702 100.921 37.0538 101.405 36.2374C101.716 35.712 102.026 35.1863 102.336 34.6605C104.095 31.6806 105.883 28.7344 107.805 25.8618Z" fill="#202020"/>
<path d="M60.1212 1.00339C60.6053 1.00558 60.6053 1.00558 61.0992 1.00781C66.1104 1.04055 70.8279 1.37165 75.6278 2.9239C75.9703 3.03067 76.3128 3.13744 76.6656 3.24744C87.5738 6.70592 96.3578 12.4288 104.418 20.6684C104.283 22.1434 103.712 22.8238 102.672 23.8061C101.588 24.8648 100.575 25.9398 99.6023 27.1062C98.5051 28.4087 97.3594 29.6319 96.1623 30.839C95 32.011 93.8875 33.1941 92.8281 34.4637C91.419 36.1452 89.893 37.6931 88.3524 39.2467C86.9577 40.6605 85.656 42.1257 84.3818 43.652C83.3482 44.8464 82.2315 45.9487 81.1203 47.067C80.0424 48.1864 79.0487 49.3692 78.0474 50.5598C77.3383 51.3772 76.6019 52.1461 75.8395 52.9114C74.8352 53.92 73.8957 54.9547 72.9817 56.0492C71.5538 57.7455 70.0144 59.3134 68.4561 60.8823C67.2826 62.0704 66.1677 63.2854 65.096 64.5698C63.5785 66.3851 62.0597 68.0321 59.6978 68.492C56.6245 68.0265 54.5923 64.9797 52.6722 62.6645C51.8907 61.7518 51.0706 60.9025 50.2244 60.0525C49.1746 58.9936 48.1691 57.9227 47.2078 56.7795C44.7753 53.8927 42.1888 51.1457 39.6397 48.3671C38.6071 47.2407 37.575 46.1136 36.5437 44.9859C36.2958 44.715 36.0479 44.4441 35.7925 44.1649C34.3936 42.6326 33.0126 41.0865 31.6482 39.5219C30.2564 37.928 28.806 36.4167 27.3167 34.9184C26.5281 34.099 25.7913 33.2531 25.0592 32.3808C23.6757 30.7346 22.1874 29.2213 20.6765 27.6979C19.5347 26.5143 18.4691 25.2773 17.415 24.0124C16.8051 23.2985 16.1698 22.6286 15.5065 21.9668C18.596 14.315 29.7284 8.65034 36.676 5.52066C38.1609 4.90499 39.6582 4.34592 41.1745 3.81654C41.507 3.69948 41.8395 3.58243 42.1821 3.46183C48.0615 1.54034 53.9855 0.94899 60.1212 1.00339Z" fill="#202020"/>
</svg>
